<svg xmlns="http://www.w3.org/2000/svg" viewBox="0 0 1920 760" role="img">
  <rect width="1920" height="760" fill="#DDF5E8"/>
  <rect width="1920" height="471.2" fill="#F7F8F6"/>
<circle cx="300" cy="150" r="80" fill="#F4D06F" opacity="0.9"/>

  <path d="M0 418.00000000000006 q 384 -70 864 -12 q 384 -46 1056 4 V 760 H0 z" fill="#18A66A" opacity="0.16"/>
  <path d="M0 448.00000000000006 q 576 -50 1152 -6 q 480 -30 768 6 V 760 H0 z" fill="#18A66A" opacity="0.25"/>
<path d="M60 620 q 480 -220 960 -80 q 420 110 840 -60" fill="none" stroke="#18A66A" stroke-width="7" stroke-dasharray="2 10" stroke-linecap="round" opacity="0.5"/>

  <g transform="translate(1500 260) scale(1.8)">
    <path d="M0 -22 a14 14 0 0 1 14 14 q0 10 -14 26 q-14 -16 -14 -26 a14 14 0 0 1 14 -14 z" fill="#18A66A"/>
    <circle cx="0" cy="-8" r="5.5" fill="#FFFFFF"/>
  </g>

  <g transform="translate(880 470) scale(1.9)">
    <path d="M10 46 q2 -14 16 -16 l14 -14 q4 -4 10 -4 h38 q6 0 10 4 l16 14 q20 2 22 16 l1 8 q0 6 -6 6 h-8 a14 14 0 0 1 -28 0 h-42 a14 14 0 0 1 -28 0 h-9 q-6 0 -6 -6 z" fill="#0F7D4F"/>
    <path d="M44 16 h20 v14 h-26 z" fill="#DDF5E8" opacity="0.9"/>
    <path d="M70 16 h16 q3 0 5 2 l12 12 h-33 z" fill="#DDF5E8" opacity="0.9"/>
    <circle cx="39" cy="60" r="10" fill="#0E1714"/><circle cx="39" cy="60" r="4.5" fill="#E7EBE8"/>
    <circle cx="109" cy="60" r="10" fill="#0E1714"/><circle cx="109" cy="60" r="4.5" fill="#E7EBE8"/>
  </g>

  <g font-family="Arial, Helvetica, sans-serif">
    <rect x="850" y="696" width="220" height="36" rx="18" fill="#FFFFFF" opacity="0.92"/>
    <text x="960" y="720" text-anchor="middle" font-size="17" font-weight="bold" fill="#0F7D4F">Where the road takes you — placeholder</text>
  </g>
</svg>